<?xml version="1.0" encoding="utf-8"?>
<!-- Generator: Adobe Illustrator 27.5.0, SVG Export Plug-In . SVG Version: 6.00 Build 0)  -->
<svg version="1.1" id="Layer_1" xmlns="http://www.w3.org/2000/svg" xmlns:xlink="http://www.w3.org/1999/xlink" x="0px" y="0px"
	 width="1280px" height="400px" viewBox="0 0 1280 400" style="enable-background:new 0 0 1280 400;" xml:space="preserve">
<style type="text/css">
	.st0{fill:#FFFFFF;}
</style>
<path class="st0" d="M515.4,288h37.7L484.4,92.7h-43.7L372,288h37.7l16.1-48.1h73.4L515.4,288z M435.4,211.4l26.4-78.6h1.5
	l26.4,78.6H435.4z M590.4,202.2V288h-34.5V141.6h33v24.9h1.7c3.4-8.2,8.8-14.7,16.2-19.5c7.4-4.8,16.6-7.2,27.5-7.2
	c10.1,0,18.9,2.2,26.5,6.5c7.5,4.3,13.4,10.6,17.5,18.8c4.2,8.2,6.2,18.1,6.1,29.8V288h-34.5v-87.9c0-9.8-2.5-17.4-7.6-23
	c-5.1-5.5-12-8.3-20.9-8.3c-6,0-11.4,1.3-16.1,4c-4.7,2.6-8.3,6.4-11,11.4C591.8,189.1,590.4,195.1,590.4,202.2z M760.5,345.9
	c-12.4,0-23-1.7-31.9-5c-8.9-3.3-16-7.8-21.4-13.4c-5.4-5.6-9.2-11.8-11.2-18.6l31.1-7.5c1.4,2.9,3.4,5.7,6.1,8.5
	c2.7,2.8,6.3,5.2,10.8,7.1c4.5,1.9,10.3,2.8,17.2,2.8c9.8,0,17.9-2.4,24.3-7.1c6.4-4.7,9.6-12.5,9.6-23.3v-27.7h-1.7
	c-1.8,3.6-4.4,7.2-7.8,11c-3.4,3.8-7.9,6.9-13.4,9.4c-5.6,2.5-12.5,3.8-20.9,3.8c-11.2,0-21.4-2.7-30.6-8
	c-9.1-5.3-16.4-13.3-21.7-23.8c-5.4-10.6-8.1-23.8-8.1-39.8c0-16.1,2.7-29.7,8.1-40.8c5.4-11.1,12.6-19.5,21.8-25.3
	c9.2-5.8,19.4-8.6,30.6-8.6c8.6,0,15.7,1.4,21.2,4.3c5.6,2.9,10,6.4,13.3,10.4c3.3,4,5.8,7.8,7.5,11.4h1.9v-24.2h34v148.8
	c0,12.5-3,22.9-9,31.1c-6,8.2-14.1,14.3-24.5,18.4C785.4,343.9,773.6,345.9,760.5,345.9z M760.8,258.8c7.3,0,13.5-1.8,18.7-5.3
	c5.1-3.6,9.1-8.7,11.7-15.3c2.7-6.7,4-14.7,4-24c0-9.2-1.3-17.3-4-24.2c-2.6-6.9-6.5-12.3-11.6-16.2c-5.1-3.8-11.4-5.8-18.8-5.8
	c-7.7,0-14.1,2-19.3,6c-5.1,4-9,9.5-11.6,16.4c-2.6,7-3.9,14.9-3.9,23.7c0,9,1.3,16.8,4,23.5c2.6,6.7,6.5,11.9,11.7,15.6
	C746.8,256.9,753.2,258.8,760.8,258.8z M933.8,226.4v-84.8h34.5V288h-33.5v-26h-1.5c-3.3,8.2-8.7,14.9-16.3,20.1
	c-7.5,5.2-16.8,7.8-27.8,7.8c-9.6,0-18.1-2.1-25.4-6.4s-13.1-10.5-17.2-18.8c-4.1-8.2-6.2-18.2-6.2-29.9v-93.2H875v87.9
	c0,9.3,2.5,16.7,7.6,22.1c5.1,5.5,11.8,8.2,20,8.2c5.1,0,10-1.2,14.8-3.7c4.8-2.5,8.7-6.2,11.8-11.1
	C932.3,240,933.8,233.8,933.8,226.4z M1014.1,92.7V288h-34.5V92.7H1014.1z M1068.9,290.9c-9.3,0-17.6-1.7-25-5
	c-7.4-3.3-13.3-8.3-17.5-14.8c-4.3-6.5-6.4-14.6-6.4-24.2c0-8.3,1.5-15.1,4.6-20.5c3.1-5.4,7.2-9.7,12.5-13
	c5.3-3.2,11.2-5.7,17.9-7.4c6.6-1.7,13.5-2.9,20.6-3.7c8.6-0.9,15.5-1.7,20.9-2.4c5.3-0.7,9.2-1.9,11.7-3.4c2.4-1.6,3.7-4,3.7-7.3
	v-0.6c0-7.2-2.1-12.7-6.4-16.7c-4.3-3.9-10.4-5.9-18.4-5.9c-8.5,0-15.1,1.8-20.1,5.5c-4.9,3.7-8.2,8-10,13.1l-32.2-4.6
	c2.5-8.9,6.7-16.3,12.6-22.4c5.8-6,13-10.5,21.4-13.5c8.5-3,17.8-4.5,28-4.5c7.1,0,14.1,0.8,21.1,2.5c7,1.7,13.4,4.4,19.2,8.2
	c5.8,3.8,10.4,8.9,14,15.4c3.5,6.5,5.3,14.6,5.3,24.3v98h-33.2v-20.1h-1.1c-2.1,4.1-5,7.9-8.8,11.4c-3.8,3.5-8.5,6.4-14.2,8.5
	C1083.2,289.9,1076.6,290.9,1068.9,290.9z M1077.9,265.6c6.9,0,12.9-1.4,18-4.1c5.1-2.8,9-6.4,11.8-11c2.8-4.6,4.1-9.6,4.1-15v-17.3
	c-1.1,0.9-2.9,1.7-5.5,2.5c-2.6,0.8-5.4,1.4-8.6,2c-3.2,0.6-6.3,1.1-9.4,1.5c-3.1,0.4-5.8,0.8-8.1,1.1c-5.1,0.7-9.8,1.8-13.8,3.4
	c-4.1,1.6-7.3,3.8-9.6,6.6c-2.4,2.8-3.5,6.5-3.5,10.9c0,6.4,2.3,11.2,7,14.4C1064.8,264,1070.7,265.6,1077.9,265.6z M1156.9,288
	V141.6h33.5V166h1.5c2.7-8.5,7.3-15,13.8-19.6c6.5-4.6,14-6.9,22.4-6.9c1.9,0,4.1,0.1,6.4,0.2c2.4,0.2,4.4,0.4,6,0.7v31.7
	c-1.5-0.5-3.8-1-6.9-1.4c-3.1-0.4-6.2-0.6-9.1-0.6c-6.3,0-11.9,1.4-16.9,4.1c-5,2.7-8.9,6.4-11.8,11.2c-2.9,4.8-4.3,10.3-4.3,16.5
	V288H1156.9z M311.8,101.7L302,255.6L208.3,53.8L311.8,101.7z M246.9,300.7l-70.8,40.4l-70.8-40.4l14.4-34.9h112.8L246.9,300.7z
	 M176.1,130.4l37.1,90.2H139L176.1,130.4z M50.1,255.6l-9.7-153.9l103.5-47.9L50.1,255.6z"/>
</svg>
